<?xml version="1.0" encoding="UTF-8" standalone="no"?>
<svg
   width="182"
   height="52"
   viewBox="0 0 182 52"
   fill="none"
   version="1.1"
   id="svg17"
   sodipodi:docname="booz.svg"
   inkscape:version="1.2 (dc2aeda, 2022-05-15)"
   xmlns:inkscape="http://www.inkscape.org/namespaces/inkscape"
   xmlns:sodipodi="http://sodipodi.sourceforge.net/DTD/sodipodi-0.dtd"
   xmlns="http://www.w3.org/2000/svg"
   xmlns:svg="http://www.w3.org/2000/svg">
  <sodipodi:namedview
     id="namedview19"
     pagecolor="#ffffff"
     bordercolor="#000000"
     borderopacity="0.25"
     inkscape:showpageshadow="2"
     inkscape:pageopacity="0.0"
     inkscape:pagecheckerboard="0"
     inkscape:deskcolor="#d1d1d1"
     showgrid="false"
     inkscape:zoom="3.2078622"
     inkscape:cx="70.14017"
     inkscape:cy="31.173409"
     inkscape:window-width="1309"
     inkscape:window-height="456"
     inkscape:window-x="0"
     inkscape:window-y="25"
     inkscape:window-maximized="0"
     inkscape:current-layer="svg17" />
  <path
     d="M105.18 30.7404C105.215 41.4964 96.5208 50.2459 85.7627 50.2813C82.8197 50.2938 79.9123 49.6379 77.2597 48.3632C74.6071 47.0884 72.2786 45.228 70.4497 42.9222C72.2139 40.4983 73.416 37.7119 73.9688 34.7654C74.9093 37.5512 76.8106 39.9114 79.3323 41.4234C81.854 42.9355 84.8315 43.5007 87.7319 43.018C90.6323 42.5352 93.2662 41.036 95.1622 38.7886C97.0581 36.5413 98.0924 33.6925 98.0798 30.7522C98.0673 27.812 97.0087 24.9722 95.0935 22.7411C93.1784 20.51 90.5318 19.0334 87.6274 18.5755C84.7229 18.1175 81.7504 18.7082 79.2417 20.2418C76.733 21.7754 74.852 24.1517 73.9354 26.9455C73.5795 28.028 73.3768 29.1549 73.3331 30.2936C73.3236 30.4748 73.3212 30.6578 73.3212 30.8431C73.3212 31.04 73.3271 31.2329 73.337 31.428V31.4339C73.244 35.2563 72.0224 38.9658 69.8258 42.0954C69.6308 42.3731 69.43 42.6468 69.2195 42.9126C67.4064 45.2407 65.0871 47.1255 62.4374 48.4241C59.7876 49.7227 56.877 50.4011 53.9262 50.4077C43.1682 50.4431 34.4188 41.7508 34.3833 30.9927C34.3478 20.2345 43.0421 11.4853 53.8002 11.4497C56.7456 11.4375 59.6552 12.0944 62.3096 13.3709C64.964 14.6474 67.2937 16.5102 69.123 18.8187C67.3593 21.2444 66.1548 24.0307 65.5962 26.9773C64.6583 24.1901 62.7589 21.8277 60.2381 20.3131C57.7173 18.7986 54.7397 18.2308 51.8384 18.7115C48.9371 19.1922 46.3017 20.6898 44.404 22.9364C42.5063 25.183 41.4702 28.0317 41.4813 30.9724C41.4924 33.9132 42.55 36.754 44.4646 38.9862C46.3792 41.2184 49.0258 42.6961 51.9306 43.1549C54.8354 43.6136 57.8087 43.0234 60.318 41.4899C62.8273 39.9564 64.7088 37.5797 65.6256 34.7855C65.9842 33.6949 66.1877 32.5593 66.2302 31.4121C66.238 31.2388 66.2396 31.0654 66.2396 30.8902C66.2396 30.7071 66.2338 30.5259 66.2258 30.3447C66.3094 26.5061 67.5315 22.7788 69.737 19.6359C69.932 19.3582 70.1329 19.0845 70.3416 18.8187C72.1554 16.4908 74.4751 14.6063 77.1251 13.3077C79.7751 12.0092 82.6858 11.3307 85.6368 11.3236C96.3948 11.2883 105.144 19.9804 105.18 30.7404Z"
     fill="url(#paint0_linear_1_41)"
     id="path2"
     style="fill:#df643a;fill-opacity:1" />
  <path
     d="M1 1H7.00399V32.8852C7.00399 36.3678 7.9877 39.1888 9.95511 41.3485C11.9225 43.5081 14.4779 44.5879 17.6213 44.5879C20.8098 44.5879 23.3991 43.5081 25.3892 41.3485C27.3792 39.1888 28.3742 36.3452 28.3742 32.8174C28.3742 29.4479 27.351 26.7004 25.3046 24.5749C23.2581 22.4493 20.6292 21.3865 17.4177 21.3864C15.9607 21.3881 14.515 21.6405 13.1437 22.1327C11.7415 22.6302 10.362 23.3991 9.00532 24.4393V18.0282C10.3507 17.2638 11.7944 16.6873 13.2963 16.3149C14.845 15.9364 16.434 15.7484 18.0283 15.7551C19.6279 15.7577 21.2177 16.0037 22.7433 16.4846C24.2538 16.9466 25.6839 17.6388 26.9834 18.5368C29.4031 20.2103 31.2518 22.2795 32.5294 24.7443C33.807 27.2092 34.4459 29.9229 34.4459 32.8852C34.4459 37.9055 32.8686 42.0438 29.7139 45.3002C26.5593 48.5567 22.5736 50.185 17.7569 50.1851C14.5457 50.1851 11.6059 49.3767 8.93749 47.7597C6.29961 46.1762 4.17844 43.8606 2.83174 41.0944C2.15998 39.8043 1.68548 38.4208 1.42407 36.9899C1.14142 35.4974 1.00009 33.2587 1.00009 30.2736L1 1Z"
     fill="black"
     stroke="black"
     stroke-width="2"
     id="path4"
     style="fill:#ffffff;fill-opacity:1;stroke:none" />
  <path
     d="M124.538 14C126.574 14 128.111 14.3449 129.152 15.0346C130.192 15.7243 130.712 16.7475 130.712 18.1042C130.708 18.8477 130.546 19.5818 130.237 20.2582C129.921 20.9705 129.423 21.6885 128.745 22.4121L111.954 41.5776H130.848V47.2763H110.902C109.003 47.2763 107.544 46.8919 106.526 46.123C105.509 45.3542 105 44.2574 105 42.8328C105.013 42.1043 105.199 41.3893 105.543 40.747C105.905 40.0347 106.538 39.181 107.442 38.1859L123.691 19.6313H106.323V14H124.538Z"
     fill="black"
     stroke="black"
     stroke-width="2"
     id="path6"
     style="stroke:none;fill:#ffffff;fill-opacity:1" />
  <path
     d="M152 47.8869V29.7392C152 24.8999 153.289 21.0668 155.867 18.2401C158.445 15.4134 161.882 14 166.179 14C170.476 14 173.902 15.4134 176.457 18.2401C179.012 21.0668 180.29 24.8999 180.29 29.7392V47.8869H174.388V28.6538C174.388 26.0305 173.624 23.8935 172.098 22.2427C170.571 20.592 168.598 19.7665 166.179 19.7665C163.782 19.7665 161.809 20.5919 160.26 22.2427C158.711 23.8934 157.936 26.0305 157.936 28.6538V47.8869H152Z"
     fill="black"
     stroke="black"
     stroke-width="2"
     id="path8"
     style="stroke:none;fill:#ffffff;fill-opacity:1" />
  <defs
     id="defs15">
    <linearGradient
       id="paint0_linear_1_41"
       x1="79.7638"
       y1="50.4078"
       x2="71.2737"
       y2="9.22646"
       gradientUnits="userSpaceOnUse">
      <stop
         stop-color="#DF643A"
         id="stop10" />
      <stop
         offset="1"
         stop-color="#E99841"
         id="stop12" />
    </linearGradient>
  </defs>
</svg>
